<?xml version="1.0" standalone="no"?>
<svg version="1.0" xmlns="http://www.w3.org/2000/svg"
 width="192" height="192" viewBox="0 0 1024.000000 1024.000000"
 preserveAspectRatio="xMidYMid meet">

<rect width="1024" height="1024" fill="#ffffff"/>

<g transform="translate(0.000000,1024.000000) scale(0.100000,-0.100000)"
fill="#204533" stroke="none">
<path d="M0 5120 l0 -5120 5120 0 5120 0 0 5120 0 5120 -5120 0 -5120 0 0
-5120z m4338 4325 c36 -51 71 -145 72 -187 0 -21 3 -38 6 -38 4 0 26 17 49 38
122 113 281 148 470 103 85 -21 194 -58 209 -72 12 -11 -154 -211 -218 -261
-64 -51 -134 -84 -208 -99 l-58 -12 43 -30 c60 -42 104 -86 139 -135 28 -41
29 -44 13 -62 -9 -10 -40 -29 -68 -41 -42 -19 -69 -24 -139 -23 -49 0 -88 -2
-88 -5 0 -3 7 -28 15 -55 l15 -49 -45 6 c-51 7 -127 43 -173 82 -47 40 -84
122 -80 181 l3 49 46 -2 c25 -1 96 -21 159 -43 120 -43 190 -62 190 -51 -1 9
-259 127 -309 141 l-44 11 34 35 c77 79 290 202 467 268 132 51 67 46 -98 -6
-117 -37 -287 -125 -377 -194 l-68 -53 -12 102 c-6 56 -12 136 -12 177 -1 41
-5 81 -10 89 -14 22 -25 -85 -26 -249 l0 -145 -34 -3 c-84 -8 -177 64 -205
159 -18 60 -21 169 -6 169 6 0 33 -11 60 -25 l50 -25 0 28 c0 45 28 115 62
156 41 50 126 116 141 110 7 -2 23 -20 35 -39z m2241 -168 c30 -88 61 -257 61
-325 -1 -134 -47 -263 -126 -351 l-45 -50 79 6 c49 3 99 1 133 -7 73 -16 189
-70 189 -87 0 -30 -52 -115 -102 -166 -36 -36 -77 -65 -125 -87 l-72 -33 45
-54 c24 -30 44 -59 44 -63 0 -31 -211 -50 -292 -26 -94 27 -198 128 -198 191
0 26 97 63 232 90 147 30 254 61 264 77 5 8 -2 9 -22 5 -16 -3 -87 -12 -159
-21 -140 -18 -269 -40 -298 -51 -16 -7 -17 -4 -11 21 18 78 122 375 189 541
42 102 74 187 71 190 -8 8 -77 -116 -151 -271 -59 -123 -127 -290 -181 -445
-3 -11 -10 -6 -24 16 -10 17 -69 84 -132 149 -62 66 -128 136 -146 158 -18 21
-35 36 -37 34 -9 -9 84 -147 171 -255 50 -61 98 -130 107 -153 15 -40 15 -41
-10 -57 -93 -61 -238 -44 -353 41 -39 30 -120 125 -120 142 0 16 23 24 92 31
32 3 58 8 58 10 0 2 -11 20 -25 41 -53 81 -73 193 -52 307 l12 70 57 -1 c78
-2 189 -55 261 -126 l55 -53 6 66 c15 166 100 299 263 409 47 31 257 148 270
150 1 0 11 -28 22 -63z m993 -203 c95 -30 168 -125 168 -219 0 -44 -40 -116
-80 -142 -79 -54 -210 1 -210 88 0 42 17 44 40 6 56 -95 170 -64 170 47 0 36
-31 89 -70 118 -94 68 -298 22 -413 -94 -130 -132 -156 -300 -87 -563 18 -66
36 -138 42 -160 5 -22 13 -44 17 -48 5 -5 26 12 47 37 127 152 309 191 397 87
35 -42 42 -74 28 -122 -19 -63 -97 -98 -152 -69 -31 17 -22 30 21 30 75 0 107
73 55 125 -47 48 -146 30 -225 -41 -61 -55 -95 -109 -150 -239 -53 -125 -85
-186 -126 -234 -29 -35 -40 -37 -69 -16 -19 15 -18 17 18 83 49 91 71 187 63
277 -3 39 -26 142 -51 230 -94 327 -69 523 89 680 138 137 317 189 478 139z
m-4572 -91 c0 -30 -51 -184 -83 -252 -40 -86 -122 -168 -205 -206 l-63 -29 40
-12 c58 -17 101 -46 161 -109 l52 -56 -23 -25 c-13 -14 -51 -39 -85 -55 -49
-24 -76 -31 -133 -32 -39 -1 -71 -2 -71 -2 2 0 30 -101 30 -107 0 -14 -45 -9
-115 13 -113 35 -185 125 -185 233 0 25 3 26 53 26 28 0 108 -11 177 -25 126
-25 190 -31 176 -18 -14 14 -302 93 -338 93 -16 0 -28 5 -28 11 0 19 277 288
373 364 48 37 85 70 83 73 -7 6 -113 -60 -207 -130 -46 -34 -130 -107 -187
-162 -56 -54 -104 -97 -106 -95 -3 4 -73 239 -95 319 -9 33 -9 31 -10 -25 0
-33 12 -118 28 -189 37 -162 33 -182 -34 -173 -121 17 -216 122 -232 257 -6
56 -5 57 57 35 23 -8 44 -15 46 -15 2 0 4 22 4 49 0 27 7 71 16 99 19 58 82
145 108 150 37 7 139 -117 166 -201 l12 -39 40 61 c90 138 208 189 446 190
118 1 132 -1 132 -16z m6145 -63 c11 -18 -16 -210 -41 -298 -14 -48 -39 -112
-57 -142 -44 -79 -137 -165 -217 -202 l-67 -32 61 -21 c86 -30 133 -63 204
-141 l63 -67 -33 -34 c-18 -19 -67 -51 -107 -71 -70 -35 -81 -37 -168 -37 -51
0 -93 0 -93 0 2 0 40 -130 40 -136 0 -15 -54 -10 -121 11 -161 50 -231 126
-254 278 -13 84 28 91 242 38 144 -35 290 -55 279 -38 -3 5 -23 13 -43 17 -21
4 -112 31 -204 61 -91 30 -178 54 -193 54 -14 0 -26 5 -26 10 0 18 232 270
384 418 81 79 146 145 144 148 -18 17 -322 -239 -468 -394 -63 -67 -118 -122
-122 -122 -5 0 -8 9 -8 21 0 19 -137 438 -147 449 -14 15 14 -155 48 -288 21
-84 39 -173 39 -197 l0 -45 -53 0 c-87 0 -144 25 -213 94 -66 66 -102 140
-112 229 -5 56 -1 57 85 27 32 -11 57 -20 58 -20 0 0 0 46 0 103 0 96 2 106
33 168 19 37 46 81 61 100 l27 32 45 -30 c24 -17 65 -53 91 -81 46 -48 108
-157 108 -187 0 -28 15 -15 50 46 95 167 257 252 526 278 128 12 152 12 159 1z
m-4927 -153 c-24 -67 -30 -98 -31 -172 -1 -83 3 -100 47 -225 26 -74 54 -157
61 -184 21 -74 38 -234 30 -283 -3 -24 -3 -43 0 -43 4 0 44 22 89 49 44 27
123 70 175 96 116 58 196 131 243 221 18 35 36 64 41 64 19 0 5 -90 -21 -144
-16 -31 -27 -56 -26 -56 2 0 45 14 96 31 173 57 284 140 323 242 25 65 16 165
-20 218 -51 78 -141 97 -217 45 -67 -45 -61 -147 9 -154 18 -2 41 2 52 7 31
17 36 -5 7 -34 -43 -43 -121 -30 -156 27 -65 107 39 248 183 248 59 0 142 -43
172 -89 13 -20 32 -65 41 -101 44 -172 -33 -321 -220 -425 -39 -21 -131 -62
-205 -90 -322 -123 -447 -196 -577 -339 -69 -75 -113 -145 -159 -253 -41 -96
-61 -193 -70 -341 -6 -97 -9 -112 -21 -100 -17 17 -44 152 -44 221 0 115 39
276 100 412 55 123 71 195 77 340 8 211 -28 338 -138 495 -120 172 -364 258
-594 210 -180 -37 -305 -174 -305 -333 0 -37 9 -99 19 -137 20 -72 16 -85 -19
-50 -32 32 -62 100 -70 159 -27 190 90 343 317 417 79 26 101 29 213 28 179 0
313 -42 426 -132 l52 -41 6 52 c11 84 38 148 83 195 23 24 46 41 52 38 6 -4
-2 -38 -21 -89z m-2560 -81 c44 -23 117 -108 137 -159 l18 -47 30 26 c43 36
60 28 71 -31 18 -100 -21 -199 -98 -249 -72 -47 -78 -39 -110 153 -29 173 -48
215 -40 86 3 -49 9 -124 14 -165 4 -41 6 -76 5 -78 -2 -2 -30 10 -62 27 -109
54 -287 110 -433 135 -63 11 -17 -10 105 -49 65 -21 178 -67 249 -102 l130
-64 -48 -31 c-27 -16 -87 -61 -134 -99 -47 -38 -89 -69 -94 -69 -4 0 -8 -5 -8
-10 0 -13 87 31 160 80 74 50 138 82 158 78 33 -6 42 -111 13 -173 -34 -76
-90 -125 -170 -150 -22 -7 -23 -6 -20 44 2 28 3 51 1 51 -1 0 -19 -7 -39 -15
-60 -25 -202 -16 -237 16 -15 13 50 135 100 189 l47 50 -45 0 c-113 0 -224 67
-335 203 -35 43 -63 82 -63 87 0 5 26 23 58 39 187 94 356 98 476 11 l41 -31
6 70 c5 50 16 86 39 130 18 34 37 61 42 61 5 0 21 -6 36 -14z m618 -338 c-3
-18 -24 -62 -46 -98 -89 -148 -130 -282 -137 -458 l-6 -133 -40 3 -41 3 -17
82 c-23 106 -68 196 -139 275 -67 75 -97 128 -73 128 40 0 153 -87 203 -158
l38 -52 22 72 c48 159 179 364 234 367 5 1 6 -13 2 -31z m1404 14 c0 -9 -16
-40 -35 -69 l-34 -51 42 -6 c95 -14 203 -88 268 -183 l29 -42 -38 -31 c-62
-52 -150 -89 -239 -102 l-82 -12 63 -66 c44 -47 71 -87 92 -136 27 -65 28 -77
29 -214 0 -103 -5 -172 -19 -238 -19 -92 -19 -93 -45 -87 -14 3 -86 36 -160
72 -115 56 -144 76 -207 138 -48 47 -82 91 -98 126 -22 49 -31 77 -51 173 l-6
29 -16 -24 c-60 -88 -108 -130 -196 -175 l-91 -45 -17 23 c-24 31 -48 111 -55
183 -5 47 -1 74 15 122 12 34 21 66 21 70 0 4 -30 9 -66 10 -37 1 -69 5 -72 8
-12 12 37 94 90 151 91 97 195 128 316 95 42 -12 43 -13 36 -44 -8 -39 -44
-112 -95 -192 -41 -65 -93 -174 -103 -215 -6 -23 -5 -23 6 -6 7 10 61 88 120
174 59 86 110 164 114 174 12 39 24 26 136 -152 90 -142 188 -310 232 -397 31
-63 51 -78 32 -26 -58 160 -167 385 -270 555 -25 41 -46 78 -46 80 0 5 315 13
408 10 63 -2 76 10 25 22 -16 4 -109 10 -208 15 -129 6 -191 13 -219 25 -37
15 -38 18 -33 52 8 49 51 118 92 150 67 51 141 74 243 74 81 0 92 -2 92 -18z
m2421 -238 c-12 -63 -49 -140 -91 -187 -16 -19 -30 -39 -30 -45 0 -5 25 -10
56 -11 137 -3 263 -59 364 -160 68 -69 109 -143 117 -212 8 -64 -3 -60 -47 18
-42 74 -159 186 -235 223 -112 56 -227 61 -403 18 -60 -15 -119 -21 -192 -21
-131 0 -232 30 -343 102 -79 52 -157 117 -157 132 0 23 63 4 150 -46 216 -123
360 -134 542 -38 85 45 142 106 198 215 24 46 48 89 53 96 19 23 29 -25 18
-84z m2172 -70 c-21 -63 -100 -137 -220 -206 -93 -54 -163 -81 -422 -163 -160
-51 -226 -87 -321 -176 -24 -23 -46 -37 -48 -30 -6 19 49 103 100 152 68 65
156 108 348 172 220 72 301 114 519 266 24 17 48 31 52 31 4 0 1 -21 -8 -46z
m-2908 -478 c141 -4 194 -20 258 -76 78 -69 110 -147 197 -480 28 -107 64
-238 80 -290 15 -52 56 -196 90 -320 73 -266 111 -403 223 -805 91 -323 163
-586 232 -840 53 -197 119 -430 143 -510 l19 -60 21 70 c12 39 48 169 82 290
34 121 74 265 90 320 16 55 52 181 79 280 173 623 293 1049 310 1105 11 36 31
108 45 160 14 52 50 184 80 292 31 109 81 287 111 395 67 239 97 304 170 371
94 87 82 85 632 90 329 2 499 0 534 -7 104 -23 155 -91 146 -195 -4 -53 -87
-334 -283 -961 -24 -77 -64 -207 -89 -290 -26 -82 -103 -332 -172 -555 -69
-223 -142 -461 -164 -530 -21 -69 -74 -240 -117 -380 -44 -140 -128 -410 -186
-600 -59 -190 -122 -392 -141 -450 -18 -58 -52 -166 -75 -240 -128 -413 -281
-883 -301 -921 -48 -95 -119 -141 -243 -158 -96 -14 -809 -15 -888 -1 -73 11
-116 32 -171 80 -120 106 -124 117 -562 1640 -40 140 -94 325 -119 410 -88
303 -156 537 -208 722 -29 104 -56 188 -59 188 -3 0 -34 -100 -68 -222 -34
-123 -90 -317 -123 -433 -33 -115 -75 -264 -93 -330 -71 -261 -368 -1283 -435
-1500 -39 -126 -90 -267 -112 -313 -51 -104 -121 -182 -196 -219 l-57 -28
-465 0 c-412 0 -471 2 -521 17 -113 35 -173 105 -223 258 -68 206 -441 1388
-530 1675 -36 116 -110 354 -164 530 -55 176 -125 403 -157 505 -31 102 -76
246 -100 320 -24 74 -69 221 -101 325 -31 105 -64 198 -73 207 -9 10 -43 27
-76 39 -49 17 -74 20 -135 15 -41 -3 -88 -2 -104 2 l-28 8 52 28 c65 35 145
44 215 22 27 -8 50 -14 52 -13 1 2 -12 47 -28 102 -62 204 -192 624 -234 760
-62 197 -75 251 -75 316 0 94 63 162 163 174 29 4 266 5 527 3 l475 -3 60 -28
c98 -46 154 -112 198 -232 26 -75 132 -445 322 -1125 13 -47 53 -188 89 -315
35 -126 99 -354 141 -505 42 -151 108 -385 147 -520 38 -135 94 -332 123 -438
29 -107 56 -196 59 -199 2 -3 12 19 20 48 94 335 304 1093 361 1309 13 47 52
189 88 315 36 127 84 300 107 385 23 85 62 225 86 310 24 85 62 223 84 305 89
328 132 472 153 515 29 61 97 127 165 158 53 24 70 27 232 32 96 3 202 4 235
3 33 -2 114 -4 180 -7z m1603 -37 c34 -17 62 -33 62 -37 0 -16 -17 -32 -58
-55 l-42 -24 49 -31 c75 -49 129 -132 146 -224 8 -45 -3 -53 -102 -69 -60 -11
-76 -10 -143 9 -41 11 -77 19 -79 17 -2 -2 6 -24 18 -49 76 -157 41 -332 -109
-531 -33 -44 -64 -81 -69 -83 -14 -5 -114 115 -165 198 -80 130 -106 248 -82
372 l7 37 -58 -35 c-71 -43 -140 -64 -209 -64 -60 0 -64 6 -64 81 0 64 33 164
70 210 l29 37 -29 11 c-17 6 -43 16 -60 22 -16 6 -30 15 -30 19 0 4 21 26 46
50 97 90 218 116 321 71 28 -13 59 -31 69 -42 17 -18 15 -21 -47 -82 -36 -34
-100 -93 -142 -130 -75 -67 -128 -131 -79 -97 158 112 213 152 258 188 l53 43
15 -53 c27 -94 55 -250 66 -368 6 -63 13 -140 17 -170 l6 -55 10 35 c20 73 -8
462 -43 579 -5 19 -9 36 -7 37 2 2 268 -89 362 -125 l30 -11 -25 21 c-14 12
-63 40 -110 61 -200 94 -252 120 -257 134 -3 7 7 28 22 46 85 101 218 122 353
57z m2379 -641 c-3 -18 -8 -40 -12 -49 -5 -13 3 -15 54 -11 64 5 138 -15 180
-47 l24 -18 -21 -34 c-28 -46 -79 -93 -127 -117 l-39 -20 42 -21 c83 -42 154
-135 181 -236 5 -22 14 -73 19 -112 l8 -73 -48 0 c-67 0 -193 27 -243 52 -65
33 -91 55 -124 104 -18 29 -32 41 -35 33 -21 -71 -45 -120 -79 -156 -22 -24
-45 -43 -53 -43 -37 0 -104 126 -104 197 0 38 1 38 -47 18 -19 -8 -37 -15 -39
-15 -12 0 -1 101 15 135 36 79 152 148 189 112 13 -14 13 -28 -2 -129 -18
-124 -21 -198 -6 -163 11 29 39 161 47 223 3 28 10 52 15 52 16 0 139 -90 261
-192 64 -54 117 -94 117 -90 0 14 -219 223 -289 277 -40 30 -59 50 -50 53 30
9 254 106 264 114 20 18 -79 -8 -214 -57 -40 -14 -80 -24 -87 -21 -9 4 -14 22
-14 52 0 84 58 156 159 195 62 24 64 24 58 -13z m-381 -134 c45 -30 94 -69
110 -85 l28 -29 -30 0 c-42 1 -138 48 -212 106 -6 4 9 64 16 64 3 0 42 -25 88
-56z m-7809 -270 c117 -56 179 -153 171 -266 -3 -42 -4 -43 -43 -46 -22 -1
-71 7 -110 18 -117 35 -209 57 -266 64 -52 6 -53 6 -24 -8 54 -25 360 -136
375 -136 8 0 -7 -19 -35 -42 -151 -128 -273 -262 -333 -368 -33 -59 -74 -150
-67 -150 2 0 32 41 67 92 80 117 207 251 323 341 l90 70 8 -54 c5 -30 24 -130
42 -224 25 -130 34 -159 35 -125 4 74 0 161 -10 225 -6 33 -10 95 -10 138 l0
77 28 0 c49 0 119 -30 165 -70 62 -55 89 -122 95 -234 l5 -88 -24 7 c-35 11
-77 33 -84 45 -15 25 -25 5 -25 -52 0 -49 -7 -77 -29 -123 -28 -59 -104 -155
-122 -155 -31 0 -125 144 -145 222 -9 35 -19 66 -23 70 -3 4 -23 -26 -45 -68
-66 -128 -200 -232 -409 -314 -48 -19 -60 -21 -67 -10 -27 44 -24 358 4 447
28 89 92 172 174 227 l73 48 -51 24 c-28 13 -67 36 -87 51 -44 34 -123 138
-123 163 0 23 79 74 157 101 45 16 74 20 129 17 l72 -5 -9 31 c-5 17 -9 48 -9
69 0 38 0 39 33 32 17 -3 64 -22 104 -41z m7554 -534 c15 -134 40 -230 103
-388 68 -174 69 -177 56 -202 -10 -18 -14 -19 -27 -8 -54 44 -149 253 -177
390 -24 117 -20 211 16 332 l12 41 3 -35 c2 -19 8 -78 14 -130z m649 -331 c-5
-17 -21 -50 -35 -74 -27 -46 -31 -60 -16 -50 20 11 147 -17 191 -42 56 -33
170 -143 170 -165 0 -23 -116 -113 -193 -149 -36 -17 -91 -33 -121 -36 -31 -3
-56 -9 -56 -13 0 -4 20 -24 44 -44 116 -94 177 -286 155 -486 -11 -100 -46
-269 -59 -283 -11 -12 -215 81 -298 138 -89 59 -178 153 -208 220 -21 45 -29
73 -49 169 -6 30 -6 30 -44 -30 -21 -33 -63 -81 -93 -107 -52 -44 -170 -107
-202 -107 -8 0 -23 22 -34 53 -50 135 -52 218 -10 324 l24 59 -77 0 c-43 -1
-81 2 -85 6 -4 4 7 37 25 72 67 137 185 226 304 229 34 0 79 -5 101 -12 37
-13 38 -15 33 -50 -3 -20 -41 -106 -85 -191 -81 -160 -128 -267 -120 -275 6
-7 201 301 236 371 14 30 29 54 32 54 20 0 220 -307 341 -523 45 -81 84 -146
86 -144 8 9 -52 158 -117 292 -38 77 -105 201 -150 275 -101 165 -101 165 -68
157 23 -6 467 39 476 47 10 11 -111 17 -275 15 -204 -3 -263 6 -263 41 0 39
42 130 81 173 39 45 120 93 182 107 18 5 67 8 109 9 l77 1 -9 -31z m-7606
-195 c4 -10 -5 -29 -23 -50 -65 -73 -97 -147 -156 -357 -20 -70 -45 -151 -56
-180 -41 -105 -109 -172 -109 -107 0 15 7 47 16 71 8 24 30 108 49 186 19 77
46 169 59 204 30 73 114 188 165 224 42 29 47 30 55 9z m-681 -400 c123 -32
211 -93 253 -176 31 -61 43 -136 23 -149 -24 -15 -101 -10 -239 16 -73 14
-158 25 -189 24 -31 0 -51 -2 -46 -4 65 -22 327 -90 383 -99 l74 -11 -87 -115
c-97 -127 -128 -163 -288 -327 -60 -62 -105 -113 -99 -113 39 0 378 318 471
443 24 31 47 57 51 57 4 0 11 -12 15 -27 3 -16 35 -93 70 -173 35 -80 70 -162
79 -182 8 -21 17 -38 19 -38 2 0 0 24 -5 54 -8 56 -24 107 -77 256 -16 47 -33
108 -37 136 l-6 51 40 7 c148 23 295 -88 346 -261 l15 -53 -25 -6 c-13 -3 -45
-1 -70 5 -26 7 -49 10 -51 7 -3 -3 0 -19 6 -37 16 -46 14 -147 -5 -209 -18
-60 -64 -150 -76 -150 -5 0 -32 12 -60 26 -73 37 -158 126 -188 196 -14 32
-27 58 -30 58 -3 0 -16 -25 -29 -56 -44 -101 -142 -191 -252 -232 -67 -25
-251 -52 -350 -52 l-71 0 7 43 c49 306 136 474 293 564 l52 30 -42 13 c-102
30 -216 113 -261 189 l-17 30 36 35 c69 67 190 110 275 99 21 -3 39 -4 39 -2
0 2 -9 33 -20 67 -28 89 -25 92 73 66z"/>
</g>
</svg>
