<?xml version="1.0" standalone="no"?>
<!DOCTYPE svg PUBLIC "-//W3C//DTD SVG 20010904//EN"
 "http://www.w3.org/TR/2001/REC-SVG-20010904/DTD/svg10.dtd">
<svg version="1.0" xmlns="http://www.w3.org/2000/svg"
 width="192.000000pt" height="192.000000pt" viewBox="0 0 192.000000 192.000000"
 preserveAspectRatio="xMidYMid meet">

<g transform="translate(0.000000,192.000000) scale(0.100000,-0.100000)"
fill="#1B4332" stroke="none">
<rect width="1920" height="1920" fill="white"/><path d="M0 960 l0 -960 960 0 960 0 0 959 0 959 -960 1 -960 0 0 -959z m408
703 c5 -27 34 -175 63 -331 33 -173 57 -276 61 -265 7 18 148 623 148 636 0 4
49 7 109 7 78 0 110 -4 113 -12 3 -7 36 -156 74 -330 38 -175 71 -318 74 -318
3 0 29 127 58 283 30 155 58 303 64 330 l10 47 89 0 c69 0 89 -3 89 -14 0 -8
-22 -119 -50 -247 -27 -129 -50 -240 -50 -246 0 -10 52 -13 225 -13 l225 0 -1
-97 0 -98 -228 -320 -228 -320 229 -3 228 -2 0 -70 0 -70 -340 0 -340 0 0 78
0 78 218 309 c120 171 221 316 226 323 6 10 -19 12 -125 10 l-133 -3 -31 -145
-30 -145 -97 -3 -97 -3 -10 38 c-5 21 -42 175 -81 343 -38 168 -74 313 -78
323 -5 12 -26 -63 -61 -215 -29 -128 -66 -290 -83 -360 l-30 -128 -99 0 c-94
0 -99 1 -104 23 -3 12 -48 227 -100 477 -52 250 -97 465 -100 478 -5 22 -4 22
89 22 l94 0 10 -47z m-117 -1002 c24 -24 81 -67 127 -98 45 -30 104 -79 130
-109 l48 -54 28 29 c16 16 31 44 35 63 6 30 10 33 49 36 54 4 97 -33 89 -76
l-5 -27 27 32 c32 38 32 38 77 17 41 -20 42 -29 9 -133 -21 -67 -31 -84 -55
-96 -33 -17 -68 -19 -90 -5 -11 7 -17 5 -22 -8 -22 -55 5 -105 63 -117 36 -8
37 -23 4 -31 -33 -8 -66 6 -175 76 -50 32 -107 61 -127 65 -109 20 -262 154
-327 286 l-37 76 16 64 c9 35 21 81 26 102 l10 39 28 -45 c16 -24 48 -63 72
-86z"/>
<path d="M610 248 c1 -23 21 -58 34 -58 3 0 6 13 6 30 0 19 -7 33 -20 40 -17
9 -20 8 -20 -12z"/>
<path d="M693 252 c-19 -3 -21 -8 -16 -40 3 -20 11 -43 17 -51 9 -11 12 -2 17
40 3 30 5 54 5 54 -1 1 -11 -1 -23 -3z"/>
</g>
</svg>
