<?xml version="1.0" standalone="no"?>
<!DOCTYPE svg PUBLIC "-//W3C//DTD SVG 20010904//EN"
 "http://www.w3.org/TR/2001/REC-SVG-20010904/DTD/svg10.dtd">
<svg version="1.0" xmlns="http://www.w3.org/2000/svg"
 width="192.000000pt" height="192.000000pt" viewBox="0 0 192.000000 192.000000"
 preserveAspectRatio="xMidYMid meet">

<g transform="translate(0.000000,192.000000) scale(0.100000,-0.100000)"
fill="#1B4332" stroke="none">
<path d="M0 960 l0 -960 960 0 960 0 0 960 0 960 -960 0 -960 0 0 -960z m371
440 c162 -552 202 -686 207 -694 4 -6 221 652 258 784 l10 35 106 3 107 3 56
-178 c31 -98 63 -198 71 -222 8 -25 14 -51 14 -58 0 -14 -130 -173 -142 -173
-3 0 -28 66 -56 148 l-49 147 -134 -402 -134 -403 -111 0 -112 0 -20 63 c-291
932 -332 1062 -332 1071 0 4 50 5 112 4 l112 -3 37 -125z m1419 54 l0 -75
-323 -377 c-177 -207 -328 -384 -334 -393 -11 -13 -9 -27 8 -75 11 -32 27 -78
34 -101 l13 -43 -189 0 -189 0 0 73 0 73 132 155 c72 85 223 261 335 392 111
130 203 239 203 242 0 2 -71 6 -157 7 l-157 3 -28 90 c-15 50 -28 93 -28 98 0
4 153 7 340 7 l340 0 0 -76z m-143 -477 c-42 -127 -101 -312 -133 -409 l-57
-178 -111 0 -111 0 -29 88 c-16 48 -31 92 -33 98 -4 10 120 165 137 172 4 2
13 -12 20 -30 l12 -33 27 84 c25 81 30 88 186 270 88 103 162 184 163 179 2
-4 -30 -113 -71 -241z m163 -487 l0 -100 -154 0 -155 0 30 88 c16 48 31 93 34
100 3 9 38 12 125 12 l120 0 0 -100z"/>
</g>
</svg>
