<?xml version="1.0" standalone="no"?>
<!DOCTYPE svg PUBLIC "-//W3C//DTD SVG 20010904//EN"
 "http://www.w3.org/TR/2001/REC-SVG-20010904/DTD/svg10.dtd">
<svg version="1.0" xmlns="http://www.w3.org/2000/svg"
 width="512.000000pt" height="512.000000pt" viewBox="0 0 512.000000 512.000000"
 preserveAspectRatio="xMidYMid meet">

<g transform="translate(0.000000,512.000000) scale(0.100000,-0.100000)"
fill="#1B4332" stroke="none">
<rect width="5120" height="5120" fill="white"/>
<path d="M0 2560 l0 -2560 2560 0 2560 0 0 2560 0 2560 -2560 0 -2560 0 0
-2560z m1074 1928 c9 -40 23 -109 31 -153 19 -107 33 -177 176 -922 68 -354
126 -639 130 -635 3 4 27 97 52 207 26 110 89 385 142 610 52 226 123 527 156
670 33 143 63 268 65 278 5 16 27 17 289 17 261 0 284 -1 289 -17 3 -10 19
-83 36 -163 17 -80 40 -183 50 -230 11 -47 31 -139 45 -205 37 -167 62 -280
85 -382 10 -49 31 -142 45 -208 14 -66 35 -158 45 -205 35 -158 68 -305 80
-365 12 -57 13 -59 22 -30 4 17 17 77 28 135 10 58 31 166 45 240 14 74 35
180 45 235 33 174 55 289 139 725 44 234 83 435 86 448 l5 22 240 0 c191 0
240 -3 240 -13 0 -12 -21 -111 -145 -692 -20 -93 -47 -219 -60 -280 -13 -60
-37 -175 -54 -254 -17 -79 -31 -148 -31 -153 0 -4 273 -9 608 -10 l607 -3 3
-241 2 -241 -393 -554 c-466 -657 -665 -938 -762 -1074 l-72 -100 611 -5 611
-5 3 -188 2 -187 -910 0 -910 0 0 203 0 202 117 165 c64 91 153 217 198 280
44 63 128 183 187 265 58 83 240 341 405 575 165 234 303 431 307 438 6 9 -68
12 -353 12 l-360 0 -10 -37 c-5 -21 -32 -148 -60 -283 -29 -135 -64 -300 -78
-368 l-27 -122 -253 0 -252 0 -16 53 c-8 28 -19 76 -25 106 -5 29 -14 70 -20
90 -5 20 -35 144 -65 276 -31 132 -62 267 -70 300 -8 33 -23 98 -34 145 -11
47 -43 184 -71 305 -28 121 -59 254 -69 295 -11 41 -34 140 -51 220 -18 80
-36 151 -40 159 -4 8 -14 -16 -24 -60 -10 -41 -26 -110 -36 -154 -11 -44 -42
-179 -70 -300 -27 -121 -57 -247 -65 -280 -8 -33 -35 -148 -59 -255 -25 -107
-77 -332 -116 -500 -39 -168 -75 -326 -81 -353 l-11 -47 -262 0 -262 0 -233
1118 c-275 1310 -321 1533 -321 1544 0 4 110 8 244 8 l244 0 16 -72z m-539
-2415 c22 -57 35 -79 93 -156 100 -132 273 -281 497 -428 183 -119 218 -146
273 -203 33 -34 85 -97 117 -141 31 -44 58 -81 60 -83 6 -6 111 111 145 161
19 29 37 53 40 55 3 1 4 20 2 41 -5 50 11 79 53 97 56 23 115 18 184 -17 104
-52 157 -149 113 -209 -31 -42 -14 -44 34 -5 23 19 48 35 54 35 7 0 10 8 7 20
-7 27 28 60 62 60 63 0 191 -61 205 -96 3 -7 -4 -45 -15 -85 -10 -41 -22 -90
-25 -109 -3 -19 -15 -60 -26 -90 -11 -30 -26 -79 -35 -109 -18 -68 -53 -114
-112 -149 -41 -24 -56 -27 -136 -27 -77 0 -95 3 -127 23 -29 18 -37 20 -32 8
3 -9 1 -23 -6 -31 -7 -8 -14 -50 -17 -92 -4 -68 -1 -84 19 -123 19 -37 34 -50
88 -77 36 -17 81 -34 100 -38 62 -11 69 -21 35 -49 -59 -49 -75 -51 -156 -16
-99 41 -273 139 -383 214 -48 34 -98 67 -110 75 -11 8 -30 22 -41 32 -11 9
-56 24 -101 33 -247 49 -397 140 -643 388 -162 165 -251 296 -339 498 -44 100
-44 94 27 378 36 144 68 262 72 262 3 0 14 -21 24 -47z"/>
<path d="M1600 722 c0 -72 26 -133 82 -192 l53 -55 5 100 5 100 -34 12 c-18 6
-51 25 -72 43 l-39 31 0 -39z"/>
<path d="M1870 684 c-19 -7 -47 -13 -63 -13 -23 -1 -27 -5 -23 -23 3 -13 7
-50 11 -82 6 -74 35 -136 74 -159 16 -9 31 -17 34 -17 2 0 -3 25 -11 55 -14
50 -14 62 1 133 10 42 20 87 23 100 7 25 4 25 -46 6z"/>
</g>
</svg>
