<?xml version="1.0" standalone="no"?>
<!DOCTYPE svg PUBLIC "-//W3C//DTD SVG 20010904//EN"
 "http://www.w3.org/TR/2001/REC-SVG-20010904/DTD/svg10.dtd">
<svg version="1.0" xmlns="http://www.w3.org/2000/svg"
 width="512.000000pt" height="512.000000pt" viewBox="0 0 512.000000 512.000000"
 preserveAspectRatio="xMidYMid meet">

<g transform="translate(0.000000,512.000000) scale(0.100000,-0.100000)"
fill="#1B4332" stroke="none">
<path d="M933 3910 c26 -91 62 -212 78 -270 17 -58 39 -132 49 -165 10 -33 33
-109 50 -170 17 -60 52 -177 77 -260 25 -82 49 -163 53 -180 4 -16 21 -75 38
-130 16 -55 50 -172 76 -260 99 -340 186 -618 196 -628 4 -5 11 6 15 25 7 33
60 204 95 308 18 54 36 110 200 620 45 140 106 329 135 420 50 154 144 450
203 635 13 44 35 112 48 150 l23 70 275 3 274 2 16 -42 c8 -24 33 -101 55
-173 61 -198 236 -754 282 -894 39 -122 39 -124 21 -145 -10 -12 -91 -106
-179 -211 -88 -104 -170 -198 -181 -208 -25 -23 4 -104 -277 758 -8 26 -15 35
-19 25 -3 -8 -163 -489 -356 -1068 -193 -580 -355 -1062 -360 -1072 -9 -17
-29 -18 -288 -20 -304 -1 -291 -3 -310 60 -11 36 -77 245 -187 595 -35 110
-98 310 -140 445 -42 135 -103 328 -135 430 -32 102 -131 419 -219 705 -89
286 -172 554 -185 595 -14 41 -32 101 -40 132 -9 32 -19 64 -22 73 -6 14 26
15 292 13 l299 -3 48 -165z"/>
<path d="M4776 4045 c9 -48 0 -348 -11 -366 -5 -8 -291 -342
-635 -744 -344 -401 -710 -828 -813 -950 -103 -121 -224 -262 -268 -314 -68
-80 -78 -95 -64 -105 8 -6 22 -34 30 -61 7 -28 45 -142 83 -255 68 -199 69
-205 48 -211 -11 -3 -234 -7 -493 -8 l-473 -2 0 209 0 208 158 186 c275 325
726 853 733 858 3 3 95 111 204 240 109 129 201 237 204 240 10 9 445 519 481
564 14 17 0 18 -408 15 -262 -2 -425 0 -431 6 -5 6 -16 35 -25 65 -8 30 -44
146 -79 258 l-65 202 909 0 908 0 7 -35z"/>
<path d="M4540 3088 c-154 -482 -224 -699
-457 -1423 -19 -60 -44 -135 -54 -165 -10 -30 -48 -148 -84 -261 l-66 -206
-283 -2 c-206 -2 -286 1 -291 9 -11 17 -175 510 -175 524 0 7 41 59 90 117 50
57 134 155 187 217 70 83 98 110 104 100 5 -7 20 -50 34 -96 14 -45 30 -80 35
-77 8 5 22 49 110 337 l33 108 401 468 c221 257 416 487 435 510 18 24 36 41
38 38 3 -2 -23 -92 -57 -198z"/>
<path d="M4833 1307 c2 -229 0 -267 -13 -267 -8 0 -183
-1 -390 -1 -465 -2 -422 -4 -411 24 5 12 24 69 42 127 53 174 117 369 123 379
4 6 129 9 326 8 l320 -2 3 -268z"/>
</g>
</svg>
