<?xml version="1.0" standalone="no"?>
<svg version="1.0" xmlns="http://www.w3.org/2000/svg"
 width="512" height="512" viewBox="0 0 1024.000000 1024.000000"
 preserveAspectRatio="xMidYMid meet">

<rect width="1024" height="1024" fill="#ffffff"/>

<g transform="translate(0.000000,512.000000) scale(0.100000,-0.100000)"
fill="#204533" stroke="none">
<path d="M0 2560 l0 -2560 2560 0 2560 0 0 2560 0 2560 -2560 0 -2560 0 0
-2560z m2254 1578 c7 -13 17 -36 20 -52 6 -26 8 -27 24 -13 26 24 87 47 124
47 45 0 148 -30 148 -44 0 -26 -91 -115 -134 -131 l-45 -17 35 -35 c19 -19 33
-40 31 -46 -6 -18 -48 -37 -84 -37 -26 0 -30 -3 -26 -20 13 -48 -89 0 -115 53
-21 43 -9 61 34 53 19 -4 43 -9 52 -12 9 -3 6 2 -8 10 -14 8 -33 15 -42 16
-41 0 -3 42 82 90 30 17 44 28 30 25 -14 -4 -53 -25 -88 -46 -68 -42 -69 -41
-75 26 -3 32 -4 28 -5 -17 -1 -31 -6 -59 -11 -62 -17 -11 -67 15 -84 43 -9 16
-17 44 -17 61 0 29 3 32 23 26 19 -4 25 0 36 29 11 32 53 75 72 75 5 0 15 -10
23 -22z m906 -116 c16 -80 5 -169 -25 -202 -21 -23 -19 -30 11 -30 39 0 105
-22 111 -36 11 -30 -48 -98 -102 -117 -5 -2 -1 -14 9 -26 11 -11 16 -24 12
-29 -4 -4 -36 -7 -71 -7 -57 0 -67 3 -94 29 -52 50 -38 70 60 88 35 7 54 14
42 16 -12 2 -45 -1 -75 -7 -29 -5 -55 -7 -57 -5 -2 2 14 54 36 116 22 62 43
122 47 133 14 41 -64 -122 -85 -177 -12 -32 -24 -58 -27 -58 -2 0 -32 28 -64
63 -33 34 -50 47 -37 29 13 -19 39 -54 57 -80 31 -43 32 -47 16 -59 -21 -15
-72 -17 -107 -4 -29 11 -88 71 -81 83 3 4 14 8 26 8 16 0 19 4 14 23 -14 48
-18 88 -12 122 7 35 9 36 39 30 18 -4 51 -20 75 -36 41 -28 42 -28 42 -6 1 34
34 99 66 128 36 33 135 90 149 86 6 -2 17 -36 25 -75z m421 -51 c34 -34 38
-77 11 -111 -32 -40 -102 -21 -102 27 0 18 17 16 24 -3 3 -9 15 -14 28 -12 35
5 38 59 4 77 -32 17 -101 9 -135 -16 -54 -41 -66 -69 -66 -151 0 -42 6 -98 14
-124 l13 -47 41 34 c57 49 129 48 148 -2 16 -43 -23 -85 -59 -63 -15 9 -16 9
-1 10 9 0 22 7 29 16 20 23 -9 49 -45 40 -38 -10 -70 -48 -106 -127 -33 -72
-61 -105 -78 -94 -7 4 -4 19 9 45 26 50 26 116 0 205 -41 142 -17 231 76 293
41 27 58 32 107 32 51 0 62 -4 88 -29z m-1874 -37 c-9 -57 -47 -124 -82 -147
l-33 -21 42 -38 41 -38 -24 -20 c-13 -11 -41 -23 -62 -26 -33 -6 -38 -10 -34
-25 5 -15 1 -19 -17 -19 -34 0 -87 36 -94 65 -10 42 0 54 43 50 l38 -5 -40 14
-39 13 74 74 c77 76 49 64 -34 -15 l-47 -44 -14 32 -14 31 6 -42 c5 -41 5 -43
-21 -43 -50 0 -79 28 -100 98 -6 19 -4 22 18 22 20 0 26 5 26 23 0 29 36 87
54 87 17 0 66 -60 66 -80 0 -7 15 3 33 24 38 44 92 65 166 66 l54 0 -6 -36z
m2463 -37 c0 -98 -57 -201 -124 -226 -19 -8 -19 -10 14 -24 19 -8 48 -28 64
-45 23 -25 27 -34 17 -46 -19 -22 -76 -46 -111 -46 -31 0 -32 -1 -26 -31 6
-30 5 -30 -27 -24 -72 16 -115 53 -124 108 -7 45 12 52 90 32 85 -22 92 -16
12 10 -38 12 -71 27 -72 31 -2 5 35 50 81 99 47 49 84 91 82 92 -1 2 -46 -38
-99 -87 l-96 -90 -22 70 c-28 86 -38 83 -14 -5 22 -81 16 -100 -27 -91 -18 3
-42 13 -55 21 -26 17 -63 84 -63 114 0 17 5 20 30 15 29 -6 30 -5 30 32 0 40
28 105 47 111 17 6 79 -53 93 -87 l13 -31 18 29 c18 31 70 73 104 87 16 6 73
15 153 24 8 1 12 -14 12 -42z m-1969 -26 c-18 -32 -13 -115 10 -168 11 -26 23
-80 27 -120 l7 -71 81 45 c58 32 88 57 107 86 20 30 28 36 32 24 4 -8 2 -25
-5 -36 -9 -17 -8 -21 5 -21 26 0 113 48 129 72 21 30 21 96 -1 120 -32 36
-100 14 -91 -29 3 -12 11 -17 27 -15 30 3 23 -22 -8 -26 -50 -8 -69 53 -29 95
26 28 86 31 117 6 30 -24 43 -88 29 -136 -15 -51 -65 -91 -163 -128 -174 -67
-237 -115 -287 -216 -25 -50 -33 -83 -36 -135 -5 -74 -17 -89 -28 -32 -11 58
2 147 31 220 96 240 -31 452 -250 419 -34 -5 -56 -16 -87 -45 l-41 -40 5 -65
c5 -53 3 -63 -7 -55 -23 19 -38 68 -31 105 16 82 97 134 212 135 76 0 123 -12
165 -41 l27 -19 6 33 c7 36 47 88 54 69 2 -6 -1 -20 -7 -31z m-975 -86 c5 -20
10 -23 24 -15 22 12 30 4 30 -31 0 -37 -17 -72 -42 -88 -26 -16 -35 -7 -47 54
l-10 50 4 -52 c2 -29 3 -53 1 -53 -1 0 -30 11 -64 25 -34 14 -67 25 -74 24 -8
0 -7 -3 2 -6 8 -3 41 -17 74 -31 l59 -26 -39 -33 -39 -34 38 22 c61 35 86 5
52 -61 -23 -44 -75 -67 -75 -34 0 12 -6 15 -26 10 -35 -9 -84 2 -84 18 0 7 11
29 24 48 l24 36 -39 11 c-35 10 -129 91 -129 111 0 13 65 40 112 46 29 4 56 1
80 -9 36 -15 36 -15 43 11 3 15 13 37 21 50 l15 23 29 -21 c17 -12 33 -32 36
-45z m757 -72 c4 -3 1 -16 -7 -28 -14 -21 -13 -23 24 -34 39 -12 94 -65 87
-85 -5 -17 -79 -56 -105 -56 l-23 0 25 -32 c36 -49 50 -106 42 -180 -10 -87
-15 -95 -58 -78 -92 37 -152 93 -171 159 l-13 43 -17 -26 c-21 -32 -95 -72
-109 -58 -17 17 -28 88 -18 121 8 28 7 31 -14 31 -12 0 -26 3 -29 6 -10 10 25
63 55 85 28 21 112 27 123 9 4 -6 -10 -40 -29 -76 -47 -86 -45 -91 5 -16 23
34 44 62 48 62 6 0 16 -15 98 -149 18 -30 33 -52 33 -48 0 11 -58 125 -86 169
-13 21 -24 40 -24 43 0 3 37 6 83 7 l82 1 -75 6 c-41 4 -81 10 -87 14 -30 19
-2 72 52 100 31 16 96 22 108 10z m-563 -16 c0 -7 -6 -21 -13 -32 -27 -40 -50
-112 -56 -175 -8 -82 -27 -86 -52 -12 -10 29 -32 70 -49 91 -53 68 -27 77 36
13 l28 -28 29 60 c29 62 53 96 69 96 4 0 8 -6 8 -13z m1535 -84 c-4 -21 -16
-50 -27 -65 l-19 -28 28 0 c72 -1 183 -91 183 -148 -1 -26 -1 -26 -15 -7 -64
88 -134 124 -215 109 -25 -5 -82 -9 -126 -9 -78 0 -84 1 -138 39 -88 61 -72
76 28 26 70 -36 119 -38 182 -9 42 20 79 62 97 112 13 34 30 19 22 -20z m875
-22 c0 -18 -43 -62 -85 -86 -23 -14 -89 -41 -146 -60 -60 -21 -119 -48 -141
-66 -23 -18 -38 -25 -38 -17 0 40 75 94 165 121 66 19 153 61 190 92 30 25 55
32 55 16z m-1083 -217 c49 -37 63 -72 123 -299 9 -33 37 -135 100 -360 23 -82
71 -256 107 -385 36 -129 68 -245 72 -258 5 -17 24 40 70 205 35 125 92 327
127 448 34 121 83 297 109 390 26 94 56 186 67 206 37 66 50 69 294 69 210 0
219 -1 241 -22 28 -26 29 -59 4 -135 -10 -32 -31 -98 -46 -148 -14 -49 -32
-108 -40 -130 -7 -22 -25 -80 -40 -130 -15 -49 -33 -108 -40 -130 -7 -22 -25
-80 -40 -130 -15 -49 -33 -108 -40 -130 -7 -22 -20 -63 -29 -91 -31 -102 -157
-510 -176 -569 -11 -33 -38 -118 -60 -190 -89 -279 -88 -279 -130 -300 -41
-21 -408 -22 -448 -1 -70 36 -75 48 -197 471 -24 83 -69 238 -100 345 -31 107
-69 236 -83 287 -14 51 -27 91 -29 89 -2 -2 -42 -139 -56 -191 -4 -17 -72
-256 -137 -480 -62 -214 -125 -415 -141 -447 -10 -20 -34 -48 -52 -62 -34 -26
-35 -26 -236 -26 -216 0 -243 5 -273 52 -8 13 -36 91 -62 173 -26 83 -61 193
-78 245 -32 102 -221 705 -243 780 -87 289 -87 290 -123 300 -19 5 -47 7 -62
4 -15 -4 -31 -1 -34 5 -10 16 43 34 82 27 28 -4 33 -2 28 11 -4 9 -11 36 -16
59 -5 23 -14 53 -19 66 -6 13 -22 64 -36 113 -15 50 -33 107 -41 128 -8 20
-14 57 -14 82 0 73 8 75 258 75 219 0 235 -2 279 -43 21 -19 55 -111 97 -267
25 -91 145 -520 165 -590 10 -36 40 -141 66 -235 26 -93 51 -176 55 -183 4 -8
25 53 49 140 24 84 58 207 76 273 19 66 54 197 80 290 26 94 52 190 60 215 7
25 15 54 18 65 21 88 70 252 82 275 8 15 34 37 57 49 39 20 56 21 185 19 126
-3 145 -5 170 -24z m562 1 c15 -15 14 -17 -2 -30 -18 -13 -18 -14 3 -25 12 -6
31 -32 42 -57 25 -56 16 -66 -60 -60 -45 3 -52 1 -47 -12 25 -65 12 -131 -42
-205 l-36 -49 -28 34 c-46 56 -82 136 -77 175 4 38 2 40 -26 19 -11 -8 -37
-15 -58 -15 -37 0 -38 1 -38 38 1 20 7 48 15 62 19 34 19 37 -7 44 -23 6 -22
7 10 36 25 23 42 30 73 30 46 0 79 -14 79 -34 0 -8 -21 -33 -47 -56 l-48 -42
51 36 c29 20 54 36 57 36 10 0 28 -79 37 -164 l9 -81 -4 100 c-3 55 -8 112
-11 127 l-6 28 56 -20 c31 -10 56 -17 56 -14 0 2 -25 15 -56 29 -65 29 -69 50
-14 78 40 21 95 17 119 -8z m945 -260 c-5 -11 1 -15 19 -15 35 0 77 -17 77
-31 0 -6 -13 -23 -30 -39 l-30 -28 25 -18 c30 -23 51 -64 60 -123 l7 -44 -48
8 c-53 8 -93 25 -113 49 -19 22 -24 20 -39 -13 -25 -56 -65 -45 -79 22 -4 21
-10 26 -24 22 -32 -10 -24 41 11 77 40 39 66 34 62 -12 l-2 -35 14 38 c8 21
16 40 18 41 1 1 14 7 28 14 l25 12 -25 -6 c-42 -10 -44 -10 -48 12 -4 29 44
84 74 84 17 0 22 -4 18 -15z m-142 -51 c38 -27 48 -44 26 -44 -23 0 -78 39
-78 55 0 21 8 19 52 -11z m-3134 -103 c41 -22 56 -41 67 -89 9 -43 -11 -50
-82 -28 -75 24 -77 14 -3 -13 l61 -22 -51 -46 c-28 -25 -65 -66 -82 -92 -29
-42 -26 -40 29 19 33 36 74 73 90 82 l29 17 13 -75 c7 -42 15 -74 17 -71 3 2
0 35 -6 71 -12 75 -9 86 23 86 49 0 97 -63 97 -126 0 -22 -4 -26 -24 -22 -20
4 -25 -1 -35 -33 -7 -22 -23 -51 -36 -66 l-24 -28 -25 30 c-14 17 -28 45 -32
62 l-6 33 -25 -38 c-14 -20 -35 -45 -46 -55 -25 -21 -116 -67 -134 -67 -6 0
-14 25 -18 59 -10 84 13 159 61 201 l36 31 -23 17 c-38 27 -70 65 -67 80 4 21
67 52 105 52 29 0 33 3 33 25 0 30 9 31 58 6z m3022 -206 c0 -25 15 -86 35
-142 34 -96 35 -131 1 -94 -22 25 -66 147 -66 187 0 45 11 94 21 94 5 0 9 -20
9 -45z m260 -137 c0 -7 -4 -20 -10 -28 -10 -17 4 -30 35 -30 24 0 95 -56 95
-75 0 -21 -57 -63 -100 -75 -39 -10 -39 -11 -20 -30 43 -43 55 -81 54 -170 -1
-81 -14 -140 -31 -140 -5 0 -42 19 -83 43 -76 43 -116 87 -127 140 -3 15 -7
27 -10 27 -2 0 -16 -14 -30 -30 -27 -32 -72 -60 -97 -60 -29 0 -48 109 -26
151 10 17 7 19 -20 19 -41 0 -40 25 5 78 38 44 82 60 131 48 30 -8 28 -20 -18
-109 -16 -33 -28 -61 -26 -63 2 -2 21 26 42 62 21 36 43 63 50 61 14 -5 56
-64 102 -145 20 -35 38 -61 41 -58 5 5 -25 65 -79 159 -22 38 -38 70 -36 73 3
2 42 8 89 13 l84 8 -82 2 c-86 1 -113 7 -113 23 0 29 37 81 69 98 41 22 111
27 111 8z m-3054 -100 c-23 -33 -52 -98 -61 -138 -12 -58 -47 -130 -62 -130
-9 0 -12 7 -9 18 3 9 12 46 21 82 23 88 41 130 72 163 34 34 64 38 39 5z
m-233 -152 c40 -17 73 -53 82 -88 10 -38 -11 -44 -92 -29 -90 16 -90 7 -1 -14
40 -10 75 -19 77 -21 6 -5 -47 -74 -98 -126 -25 -27 -40 -48 -34 -48 6 0 43
34 82 75 39 41 73 75 75 75 2 0 14 -25 27 -55 30 -72 35 -64 9 14 -11 34 -18
66 -15 72 4 5 21 9 40 9 41 0 90 -38 110 -87 19 -45 20 -43 -15 -43 -27 0 -30
-3 -24 -24 6 -25 -11 -103 -28 -123 -15 -18 -62 9 -96 56 l-28 39 -17 -31
c-33 -60 -119 -97 -229 -97 -37 0 -38 1 -32 28 27 122 56 181 103 210 l30 18
-32 12 c-42 15 -91 66 -84 86 9 24 53 47 92 49 34 2 36 4 31 30 -5 22 -2 27
15 27 11 0 34 -6 52 -14z"/>
<path d="M1401 3834 c0 -11 3 -14 6 -6 3 7 2 16 -1 19 -3 4 -6 -2 -5 -13z"/>
<path d="M1538 3703 c7 -3 16 -2 19 1 4 3 -2 6 -13 5 -11 0 -14 -3 -6 -6z"/>
<path d="M1578 3693 c7 -3 16 -2 19 1 4 3 -2 6 -13 5 -11 0 -14 -3 -6 -6z"/>
<path d="M4180 2996 c0 -2 12 -12 28 -21 l27 -18 -19 21 c-17 20 -36 29 -36
18z"/>
<path d="M4260 2935 c13 -14 26 -25 28 -25 3 0 -5 11 -18 25 -13 14 -26 25
-28 25 -3 0 5 -11 18 -25z"/>
</g>
</svg>
