<?xml version="1.0" standalone="no"?>
<!DOCTYPE svg PUBLIC "-//W3C//DTD SVG 20010904//EN"
 "http://www.w3.org/TR/2001/REC-SVG-20010904/DTD/svg10.dtd">
<svg version="1.0" xmlns="http://www.w3.org/2000/svg"
 width="180.000000pt" height="180.000000pt" viewBox="0 0 180.000000 180.000000"
 preserveAspectRatio="xMidYMid meet">

<rect width="180" height="180" fill="white"/>
<g transform="translate(0.000000,180.000000) scale(0.100000,-0.100000)"
fill="#1b4332" stroke="none">
<path d="M0 900 l0 -900 900 0 900 0 0 900 0 900 -900 0 -900 0 0 -900z m850
749 c51 -11 61 -21 36 -36 -7 -4 -23 -27 -34 -49 -30 -58 -80 -74 -99 -31
l-11 22 -6 -25 c-4 -15 -1 -41 9 -62 8 -21 15 -48 15 -62 l0 -24 40 21 c22 12
40 24 40 27 0 4 -16 12 -36 19 -19 7 -33 15 -31 18 3 2 21 -3 40 -11 34 -14
36 -14 40 7 3 18 5 17 6 -5 0 -16 7 -28 14 -28 17 0 43 21 51 40 3 8 4 4 3 -9
-2 -20 -14 -29 -71 -52 -80 -33 -112 -60 -131 -115 -14 -38 -14 -38 -14 -9 0
17 6 41 14 55 8 14 14 46 15 71 0 38 -5 53 -30 79 -27 29 -34 32 -77 28 -27
-3 -57 -8 -68 -12 l-20 -8 20 19 c11 10 20 25 20 33 0 8 12 21 27 28 22 10 32
10 50 1 l23 -13 -25 -6 -25 -6 25 -8 c14 -5 32 -14 40 -22 13 -11 18 -9 32 17
16 28 16 29 -2 29 -37 0 -20 54 25 78 25 14 33 14 95 1z m329 -68 c22 -62 28
-131 10 -131 -5 0 -8 -4 -5 -9 4 -5 -3 -7 -14 -4 -11 3 -18 8 -15 12 2 4 -10
5 -27 3 l-31 -5 24 -14 c17 -10 18 -12 4 -8 -11 4 -28 10 -37 12 -13 4 -16 12
-13 32 5 24 5 24 -4 4 -9 -19 -15 -22 -43 -16 -18 4 -39 13 -47 21 -13 13 -12
19 5 51 14 27 37 46 89 73 39 20 73 37 76 37 4 1 16 -25 28 -58z m165 6 c23
-17 17 -52 -8 -52 -11 0 -20 6 -22 13 -1 7 0 8 3 2 2 -5 11 -10 20 -10 21 0
12 34 -10 38 -64 12 -104 -42 -85 -116 9 -37 12 -40 29 -29 12 8 19 23 19 43
0 27 3 31 19 27 26 -7 61 -40 61 -59 0 -8 -4 -12 -10 -9 -5 3 -10 -1 -10 -9 0
-16 -24 -17 -47 -3 -18 12 -31 1 -48 -40 -17 -39 -31 -41 -17 -2 6 16 5 39 -4
69 -20 66 -17 88 15 121 32 31 66 37 95 16z m-814 -9 c-1 -17 -34 -107 -45
-125 -18 -26 -56 -30 -75 -8 -16 20 -19 17 -41 -47 -9 -29 -18 -46 -18 -38 -1
9 -8 26 -17 38 l-16 23 -15 -20 c-8 -12 -22 -21 -33 -21 -17 0 -100 83 -100
100 0 14 52 30 95 30 34 0 47 -5 55 -19 15 -30 13 -31 -32 -26 l-43 5 39 -20
c22 -11 48 -27 58 -36 15 -15 18 -15 18 -2 0 8 14 32 30 53 35 44 34 42 15 42
-8 0 -15 -5 -15 -11 0 -6 -7 -3 -14 6 -7 10 -17 14 -21 10 -4 -4 -3 3 4 15 19
38 52 53 113 53 32 0 58 -1 58 -2z m1058 -14 c27 -5 29 -9 22 -28 -5 -11 -14
-47 -20 -79 -13 -65 -39 -91 -87 -85 -24 2 -29 9 -33 38 -4 31 -9 35 -38 38
-37 4 -47 20 -38 58 12 46 108 75 194 58z m-674 -59 c-16 -24 -44 -34 -44 -16
0 11 39 41 52 41 5 0 1 -11 -8 -25z m-279 -41 c40 -16 55 -88 33 -167 l-11
-44 -56 17 c-77 23 -98 36 -116 70 -30 59 17 110 63 68 l25 -23 -7 28 c-11 46
21 69 69 51z m78 -64 c3 -11 1 -18 -4 -14 -5 3 -9 12 -9 20 0 20 7 17 13 -6z
m230 -10 c14 -11 32 -18 40 -14 8 3 27 -7 43 -21 28 -25 28 -26 3 -10 -21 13
-32 13 -55 4 l-29 -12 25 -6 c29 -8 34 -22 86 -213 36 -132 62 -173 51 -81 -4
36 -2 42 9 32 18 -15 18 -86 0 -121 -8 -14 -10 -30 -6 -35 4 -4 15 -41 26 -80
10 -40 21 -73 25 -73 3 0 14 28 23 63 10 34 26 90 37 124 19 57 19 64 5 92
-20 38 -20 62 0 87 15 19 15 18 9 -3 -6 -21 3 -78 11 -70 2 2 20 59 39 127 19
67 40 129 46 136 17 20 98 18 123 -3 20 -17 20 -17 7 0 -38 48 -105 59 -154
26 l-32 -21 33 31 c24 23 42 31 69 31 22 0 41 7 50 18 13 15 13 15 4 -4 -9
-19 -6 -25 17 -40 15 -11 45 -21 67 -24 36 -5 40 -8 43 -36 2 -18 -4 -49 -13
-69 -14 -36 -14 -40 10 -93 33 -72 32 -90 -2 -23 l-26 54 -48 -158 c-26 -87
-45 -165 -42 -174 3 -9 -11 3 -31 26 -20 23 -55 56 -79 74 l-42 33 45 -49 c25
-27 53 -55 63 -63 26 -20 21 -53 -28 -210 -25 -79 -45 -146 -45 -148 0 -2 -6
-1 -14 2 -8 3 -17 1 -20 -4 -5 -9 31 -22 76 -27 15 -2 15 0 0 32 -16 34 -16
36 7 54 30 24 42 24 75 -2 33 -26 56 -69 56 -105 0 -21 -3 -24 -14 -15 -7 6
-35 13 -62 16 l-49 5 45 -15 c24 -8 51 -22 59 -30 19 -19 2 -19 -23 0 -11 8
-28 15 -38 15 -27 0 -11 -29 26 -45 19 -9 22 -13 8 -9 -22 5 -23 4 -12 -18 11
-22 11 -22 -9 2 l-21 25 0 -30 c0 -21 -3 -26 -9 -16 -5 8 -16 11 -24 8 -10 -4
-17 2 -21 19 -6 23 -36 35 -36 13 0 -5 -5 -7 -10 -4 -6 4 -8 10 -5 15 3 4 -2
13 -9 19 -11 10 -17 8 -25 -6 -9 -16 -10 -15 -11 8 0 20 8 28 36 39 31 13 33
15 15 22 -23 8 -51 1 -51 -14 0 -5 -5 -6 -10 -3 -6 4 -7 11 -4 17 4 6 2 8 -4
4 -5 -3 -12 0 -15 6 -2 7 -4 -2 -5 -19 -1 -46 -8 -53 -50 -53 -30 0 -40 -5
-54 -29 -9 -17 -35 -39 -57 -50 -45 -24 -96 -28 -86 -8 4 6 -4 1 -16 -13 -12
-14 -20 -18 -17 -10 4 8 10 24 14 35 7 17 6 18 -8 7 -21 -16 -28 2 -28 70 0
42 5 54 30 80 24 24 36 29 57 24 20 -6 24 -4 20 7 -21 56 -48 158 -50 188 -1
26 7 47 26 73 15 20 39 53 53 74 25 35 24 34 -16 -8 -22 -25 -54 -70 -71 -100
-20 -39 -27 -46 -22 -25 9 40 9 38 -20 135 l-25 85 -21 -70 c-11 -39 -28 -100
-37 -136 l-18 -65 -28 30 c-23 24 -27 26 -18 9 7 -16 7 -23 0 -23 -5 0 -10 5
-10 10 0 6 -4 10 -9 10 -5 0 -7 -8 -4 -19 2 -10 12 -18 20 -17 36 3 38 -29 8
-130 -35 -119 -48 -134 -115 -134 -54 0 -63 -10 -27 -32 51 -33 99 -28 145 14
12 12 22 19 22 15 0 -3 -12 -18 -27 -32 -38 -35 -88 -42 -129 -20 -30 16 -64
66 -64 94 0 19 -32 12 -37 -9 -3 -11 -9 -17 -14 -14 -18 11 -30 -7 -17 -24 11
-13 10 -15 -4 -9 -14 5 -18 1 -19 -16 l-1 -22 -6 22 c-8 26 -27 19 -35 -12 -3
-13 -5 -9 -6 13 -1 45 -31 45 -32 0 l-1 -33 -9 39 c-8 31 -6 43 7 58 16 17 16
18 0 18 -9 0 -33 -7 -53 -15 -26 -11 -33 -12 -25 -2 8 9 6 16 -8 25 -17 10
-18 16 -8 44 6 18 17 41 26 50 13 15 12 20 -12 48 -29 35 -34 71 -11 90 22 19
45 5 44 -27 -1 -26 -2 -24 -15 16 -6 18 -34 -5 -34 -27 0 -29 51 -72 86 -72
42 0 58 -21 50 -66 -7 -33 -6 -35 16 -32 13 2 23 8 23 15 0 6 12 21 28 33 15
12 34 35 42 50 21 41 18 51 -4 14 -18 -29 -79 -81 -85 -73 -1 2 -24 74 -50
161 -31 100 -45 164 -41 178 8 25 161 187 170 179 5 -5 19 -52 71 -239 l16
-55 17 50 c13 41 14 54 4 75 -17 34 -16 92 2 116 14 18 15 17 9 -18 -3 -20 -2
-44 4 -53 8 -15 10 -13 16 11 4 16 18 66 32 110 22 74 27 82 53 87 16 4 46 21
66 38 35 31 71 86 62 95 -2 3 -10 -9 -17 -26 -24 -59 -97 -106 -151 -98 -27 3
-37 34 -18 52 9 8 11 7 6 -6 -5 -15 18 -47 27 -37 2 2 11 38 21 79 23 94 47
121 101 113 32 -4 43 -1 59 17 12 14 16 24 9 27 -20 7 -49 32 -38 33 6 0 23
-9 37 -20z m706 -34 c10 -21 10 -34 3 -51 -8 -18 -8 -25 4 -29 17 -6 19 -42 3
-52 -7 -4 -9 0 -5 14 9 26 -8 36 -34 22 -25 -14 -26 -5 0 22 26 28 25 63 -1
89 -19 19 -19 20 -2 17 10 -2 24 -16 32 -32z m-1469 -14 c-27 -22 -30 -65 -6
-91 23 -25 20 -38 -3 -17 -29 26 -36 72 -17 101 9 14 24 25 32 25 12 0 11 -4
-6 -18z m289 -29 c10 -12 31 -67 46 -123 28 -99 45 -115 45 -42 0 20 4 31 10
27 6 -3 10 -25 10 -48 0 -40 -4 -46 -89 -127 -49 -47 -98 -101 -110 -120 -20
-33 -21 -34 -21 -10 -1 14 -11 57 -24 95 -18 56 -24 66 -30 48 -9 -27 -62 -53
-120 -57 -24 -2 -49 -7 -56 -11 -9 -6 -9 -3 -1 14 7 11 15 20 19 18 7 -2 12 6
12 23 0 7 -6 7 -20 0 -12 -6 -20 -7 -20 -1 0 5 13 12 30 16 43 9 47 25 5 18
-32 -5 -35 -4 -35 20 0 59 42 102 91 95 21 -3 24 -8 22 -41 -3 -40 1 -44 23
-23 7 8 19 16 25 18 7 2 2 31 -15 89 -30 98 -32 125 -11 137 9 4 57 8 106 8
81 -1 93 -3 108 -23z m757 10 c24 -32 17 -91 -18 -139 -17 -24 -35 -44 -40
-44 -17 0 -96 81 -102 105 -8 30 9 74 30 82 11 4 23 -2 35 -15 22 -28 25 -28
33 3 8 30 42 34 62 8z m-1048 -144 c11 0 12 -2 4 -6 -15 -6 -42 14 -42 31 0 6
5 3 11 -6 5 -10 18 -18 27 -19z m1482 13 c13 -11 23 -33 27 -60 5 -38 4 -42
-16 -42 -12 0 -38 7 -57 15 -31 13 -36 19 -32 40 3 14 2 25 -1 25 -4 0 -16 7
-27 15 -17 14 -15 14 20 0 45 -18 49 -18 41 -5 -7 11 2 30 14 30 5 0 19 -8 31
-18z m-985 -22 c-9 -16 -20 -30 -25 -30 -14 0 -12 6 6 24 9 9 11 16 4 16 -6 0
-8 5 -5 10 3 6 13 10 21 10 13 0 12 -4 -1 -30z m516 -102 c17 -32 -5 -19 -24
14 -15 26 -15 29 -2 18 9 -7 21 -22 26 -32z m-549 -55 c-13 -10 -17 -10 -24 0
-14 21 -9 47 7 41 9 -4 15 0 16 7 1 8 4 3 9 -11 5 -18 3 -29 -8 -37z m923 -33
c25 21 68 7 92 -29 28 -42 32 -125 7 -135 -9 -3 -14 -13 -11 -20 9 -22 -87
-11 -127 14 -49 29 -71 91 -44 118 17 17 38 15 60 -5 28 -25 33 -8 9 30 -11
19 -21 43 -20 53 0 13 4 11 11 -9 8 -22 13 -25 23 -17z m118 19 c-8 -8 -16 -8
-30 0 -16 9 -14 10 12 11 21 0 26 -3 18 -11z m-1405 -106 c-3 -16 -9 -36 -13
-45 -5 -14 -2 -18 14 -18 26 0 38 -42 21 -74 -16 -31 -63 -57 -98 -54 -24 2
-28 6 -25 23 3 11 1 16 -4 10 -4 -5 -19 -19 -32 -30 l-24 -20 5 66 c6 71 27
114 59 122 33 9 49 -3 49 -34 0 -39 16 -37 24 3 4 22 1 37 -11 52 -14 17 -15
18 -2 8 14 -10 18 -10 23 3 9 25 19 17 14 -12z m1235 -291 c-11 -15 -29 -29
-39 -31 -15 -3 -14 2 9 22 29 28 35 65 17 113 -6 15 -7 36 -4 48 5 15 11 1 22
-52 14 -70 14 -75 -5 -100z m132 86 l27 -32 -27 -13 c-31 -17 -77 -13 -83 6
-3 8 0 11 7 7 15 -10 14 7 -1 23 -7 7 -8 12 -3 11 22 -5 35 1 35 15 0 24 16
18 45 -17z m-1353 -26 c-4 -41 0 -52 23 -80 27 -33 21 -46 -7 -14 -22 24 -62
117 -44 103 11 -9 15 -6 20 14 10 39 14 30 8 -23z m1188 -12 c0 -18 -3 -21 -9
-11 -7 11 -9 11 -14 0 -3 -8 -6 -5 -6 8 -1 12 2 29 5 38 9 22 24 0 24 -35z
m-586 11 c-6 -29 5 -59 35 -97 9 -11 1 -5 -16 13 -32 32 -40 62 -27 97 10 26
14 18 8 -13z m-709 -60 c-3 -6 -14 -11 -23 -11 -15 1 -15 2 2 15 21 16 32 13
21 -4z m85 -10 c0 -5 -10 -11 -22 -13 -15 -2 -24 -11 -26 -27 -3 -20 0 -23 17
-18 12 3 19 1 15 -4 -9 -15 -33 -10 -43 9 -7 14 -6 25 5 40 15 22 54 31 54 13z
m1325 -26 c0 -25 -5 -31 -29 -35 l-28 -5 21 -19 c25 -23 28 -68 5 -90 -18 -18
-30 -20 -39 -7 -3 5 5 11 17 13 48 7 19 87 -40 109 -13 5 -23 12 -20 14 3 3
16 1 29 -3 28 -11 79 4 79 22 0 20 -12 27 -27 15 -13 -12 -19 2 -6 15 16 16
38 0 38 -29z m-684 -77 c-6 -27 -12 -33 -33 -34 -24 -1 -26 1 -17 19 7 13 8
17 1 13 -6 -3 -13 -2 -17 4 -6 10 27 28 56 29 13 1 15 -5 10 -31z m-621 5
c-26 -10 -50 -35 -50 -54 0 -25 18 -33 38 -18 16 12 16 12 0 -5 -36 -40 -71
15 -36 59 11 14 29 25 41 24 15 0 17 -2 7 -6z m99 -86 c-2 -2 -17 -11 -34 -21
l-30 -17 24 20 c13 12 28 21 34 21 6 0 8 -1 6 -3z m5 -39 c-9 -30 -8 -30 -27
-22 -15 5 -14 8 6 25 28 24 30 23 21 -3z m796 7 c-7 -8 -17 -15 -23 -15 -6 0
-2 7 9 15 25 19 30 19 14 0z m-302 -135 l-3 -57 -49 13 c-69 18 -101 44 -101
80 0 26 3 29 33 28 29 -2 32 0 30 24 -3 22 2 27 27 32 26 5 32 1 48 -28 13
-24 17 -51 15 -92z m-310 57 c4 7 13 9 21 4 10 -7 6 -16 -18 -42 -30 -33 -32
-33 -46 -15 -19 25 -19 36 0 36 8 0 15 8 15 18 0 14 2 15 10 2 8 -11 12 -12
18 -3z m622 -30 c0 -14 -31 -47 -44 -47 -6 0 -23 -7 -38 -14 -27 -14 -28 -14
-28 9 0 34 10 54 24 49 7 -3 18 1 24 9 13 16 62 11 62 -6z m87 -12 c9 -25 -2
-27 -22 -5 -17 18 -17 20 -1 20 9 0 19 -7 23 -15z m-622 -15 c3 -5 2 -10 -4
-10 -5 0 -13 5 -16 10 -3 6 -2 10 4 10 5 0 13 -4 16 -10z m390 1 c-12 -12 -65
-26 -65 -17 0 3 15 10 33 15 43 12 42 12 32 2z"/>
<path d="M1108 1479 c-29 -16 -20 -29 12 -18 16 6 27 15 24 20 -7 11 -15 11
-36 -2z"/>
<path d="M1030 1470 c20 -13 33 -13 25 0 -3 6 -14 10 -23 10 -15 0 -15 -2 -2
-10z"/>
<path d="M927 1313 c-4 -3 -7 -11 -7 -17 0 -6 5 -5 12 2 6 6 9 14 7 17 -3 3
-9 2 -12 -2z"/>
<path d="M1491 1240 c0 -8 4 -22 9 -30 12 -18 12 -2 0 25 -6 13 -9 15 -9 5z"/>
<path d="M1433 1225 c0 -8 4 -15 9 -15 4 0 8 7 8 15 0 8 -4 15 -8 15 -5 0 -9
-7 -9 -15z"/>
<path d="M1460 1159 c0 -5 5 -7 10 -4 6 3 10 8 10 11 0 2 -4 4 -10 4 -5 0 -10
-5 -10 -11z"/>
<path d="M1419 990 c-1 -5 -2 -15 -3 -22 0 -6 -7 -13 -15 -16 -8 -3 -11 0 -7
7 4 6 3 11 -3 11 -6 0 -15 -9 -21 -19 -8 -17 -7 -19 16 -16 28 3 44 20 44 48
0 18 -9 24 -11 7z"/>
<path d="M1330 980 c0 -4 7 -13 15 -20 12 -10 15 -9 15 7 0 11 -7 20 -15 20
-8 0 -15 -4 -15 -7z"/>
<path d="M460 930 c-14 -26 -13 -36 6 -54 24 -25 36 -19 20 11 -12 24 -12 29
1 39 14 10 14 11 0 17 -11 4 -20 -1 -27 -13z"/>
<path d="M1317 894 c-12 -13 -7 -24 11 -25 9 0 12 -3 5 -5 -7 -3 -9 -12 -6
-20 4 -10 -4 -14 -28 -15 -31 0 -32 -1 -11 -10 37 -14 64 5 60 43 -3 31 -17
45 -31 32z"/>
<path d="M1004 875 c2 -7 -3 -12 -11 -11 -9 0 -18 -5 -20 -11 -7 -19 22 -15
40 5 21 23 21 29 2 29 -9 0 -14 -6 -11 -12z"/>
<path d="M760 804 c0 -16 32 -35 48 -28 15 6 14 8 -5 11 -13 3 -23 9 -23 14 0
5 -4 9 -10 9 -5 0 -10 -3 -10 -6z"/>
<path d="M740 755 c13 -14 26 -25 28 -25 3 0 -5 11 -18 25 -13 14 -26 25 -28
25 -3 0 5 -11 18 -25z"/>
<path d="M591 531 c-23 -32 -27 -51 -11 -51 6 0 10 8 10 18 0 10 7 28 16 40 8
12 13 22 10 22 -2 0 -14 -13 -25 -29z"/>
<path d="M1207 544 c-3 -3 -3 -12 -1 -19 3 -7 -1 -13 -8 -12 -7 0 -22 -1 -33
-2 l-20 -2 20 -9 c38 -16 51 -11 53 20 2 30 0 35 -11 24z"/>
<path d="M691 527 c0 -10 -11 -22 -23 -27 -13 -5 -16 -9 -8 -9 25 -1 42 15 37
35 -4 17 -5 17 -6 1z"/>
<path d="M1251 504 c0 -11 3 -14 6 -6 3 7 2 16 -1 19 -3 4 -6 -2 -5 -13z"/>
<path d="M530 500 c8 -5 20 -10 25 -10 6 0 3 5 -5 10 -8 5 -19 10 -25 10 -5 0
-3 -5 5 -10z"/>
<path d="M405 470 c-4 -6 3 -10 14 -10 25 0 27 6 6 13 -8 4 -17 2 -20 -3z"/>
<path d="M496 471 c-7 -11 22 -23 35 -15 5 3 7 10 4 15 -8 12 -32 12 -39 0z"/>
<path d="M1030 446 c0 -9 5 -16 10 -16 6 0 10 4 10 9 0 6 -4 13 -10 16 -5 3
-10 -1 -10 -9z"/>
<path d="M1380 400 c0 -5 5 -10 11 -10 5 0 7 5 4 10 -3 6 -8 10 -11 10 -2 0
-4 -4 -4 -10z"/>
<path d="M445 1047 c-4 -10 -5 -20 -2 -24 9 -8 37 5 37 17 0 6 -4 9 -9 6 -5
-4 -11 0 -14 6 -3 9 -7 7 -12 -5z"/>
<path d="M370 1031 c0 -28 38 -48 56 -29 17 17 6 33 -28 42 -24 5 -28 3 -28
-13z"/>
<path d="M190 724 c0 -8 5 -12 10 -9 6 4 8 11 5 16 -9 14 -15 11 -15 -7z"/>
<path d="M818 283 c7 -3 16 -2 19 1 4 3 -2 6 -13 5 -11 0 -14 -3 -6 -6z"/>
<path d="M835 260 c3 -5 13 -10 21 -10 8 0 12 5 9 10 -3 6 -13 10 -21 10 -8 0
-12 -4 -9 -10z"/>
</g>
</svg>
